Coordinates
version=1
nRows=24
nColumns=38
inDegrees=no

Units are S.I. units (second, meters, Newtons, ...)
If the header above contains a line with 'inDegrees', this indicates whether rotational values are in degrees (yes) or radians (no).

endheader
time	pelvis_tilt	pelvis_list	pelvis_rotation	pelvis_tx	pelvis_ty	pelvis_tz	hip_flexion_r	hip_adduction_r	hip_rotation_r	knee_angle_r	ankle_angle_r	subtalar_angle_r	mtp_angle_r	hip_flexion_l	hip_adduction_l	hip_rotation_l	knee_angle_l	ankle_angle_l	subtalar_angle_l	mtp_angle_l	lumbar_extension	lumbar_bending	lumbar_rotation	arm_flex_r	arm_add_r	arm_rot_r	elbow_flex_r	pro_sup_r	wrist_flex_r	wrist_dev_r	arm_flex_l	arm_add_l	arm_rot_l	elbow_flex_l	pro_sup_l	wrist_flex_l	wrist_dev_l
0	3.12177	1.23222	1.65706	0.704235	1.75495	1.01054	0.671417	-0.0271226	-0.139543	0.560046	-0.165622	0	0	0.592763	0.0180528	0.00194701	0.690701	-0.10523	0	0	-0.24226	0.0232181	0.244797	-0.337844	-0.462457	-0.0405245	1.32035	1.12553	0	0	0.443004	-0.442071	1.13284	0.924538	1.39698	0	0
0.01	3.12283	1.23419	1.65531	0.704203	1.75396	1.01039	0.665655	-0.0234685	-0.128169	0.554686	-0.163935	0	0	0.590607	0.0184678	0.000493794	0.674771	-0.107367	0	0	-0.240924	0.0241643	0.248285	-0.345696	-0.432665	-0.0793838	1.32003	1.13653	0	0	0.423233	-0.437329	1.08617	0.920441	1.44359	0	0
0.02	3.12268	1.23413	1.65497	0.704479	1.75236	1.01043	0.664449	-0.0230113	-0.126639	0.55569	-0.161718	0	0	0.586191	0.0205405	-0.000995341	0.650945	-0.114214	0	0	-0.240504	0.0249546	0.248829	-0.348553	-0.432551	-0.0796748	1.32023	1.136	0	0	0.398257	-0.427945	1.04156	0.922059	1.41379	0	0
0.03	3.12406	1.23445	1.65332	0.704825	1.75075	1.0103	0.663552	-0.0229284	-0.128351	0.558218	-0.160522	0	0	0.581434	0.022338	-0.00252373	0.630003	-0.119299	0	0	-0.239388	0.0263206	0.24847	-0.350682	-0.433578	-0.0779222	1.31998	1.136	0	0	0.410635	-0.434651	1.07012	0.918495	1.45805	0	0
0.04	3.12749	1.23336	1.64879	0.705253	1.74881	1.01023	0.663256	-0.0216798	-0.129394	0.559017	-0.158562	0	0	0.575714	0.0228676	-0.00672217	0.605542	-0.131053	0	0	-0.252286	0.0273656	0.205535	-0.315931	-0.448428	-0.0316313	1.31983	1.1385	0	0	0.335221	-0.465024	0.949875	0.979823	1.43582	0	0
0.05	3.13217	1.24209	1.63708	0.705541	1.74606	1.0104	0.652178	-0.0162152	-0.128197	0.560151	-0.154265	0	0	0.565457	-0.00447068	-0.0917796	0.594372	-0.157083	0	0	-0.264251	0.0298685	0.197856	-0.307636	-0.455777	-0.0164535	1.32221	1.13868	0	0	0.308999	-0.472503	0.912032	0.996924	1.45583	0	0
0.06	3.13044	1.2406	1.63955	0.706063	1.74457	1.01039	0.652997	-0.0172482	-0.125241	0.561548	-0.152831	0	0	0.553478	0.00836491	-0.065833	0.558463	-0.172159	0	0	-0.264254	0.0302443	0.188183	-0.302154	-0.45819	-0.00711704	1.32092	1.13893	0	0	0.292019	-0.4747	0.886932	1.00314	1.46862	0	0
0.07	3.13266	1.24003	1.63626	0.706371	1.74295	1.01019	0.653398	-0.0163298	-0.123571	0.563805	-0.151551	0	0	0.542719	0.0163676	-0.0493135	0.53149	-0.182788	0	0	-0.263549	0.0315563	0.183698	-0.300122	-0.460326	-0.000976942	1.32049	1.1388	0	0	0.279259	-0.475397	0.869998	1.0068	1.47828	0	0
0.08	3.13765	1.24048	1.62878	0.706537	1.74123	1.00989	0.653097	-0.0138906	-0.122765	0.566627	-0.150386	0	0	0.532519	0.0205221	-0.0404797	0.511554	-0.188884	0	0	-0.263106	0.0335952	0.1819	-0.299667	-0.462514	0.00371838	1.32083	1.13864	0	0	0.268399	-0.47591	0.857011	1.00984	1.49093	0	0
0.09	-3.13891	1.24205	1.61861	0.706597	1.73948	1.00953	0.651703	-0.00966251	-0.119332	0.56994	-0.14913	0	0	0.521821	0.0219688	-0.0371961	0.495859	-0.190709	0	0	-0.26425	0.0357688	0.178163	-0.296383	-0.465619	0.0116974	1.32101	1.13938	0	0	0.271674	-0.489835	0.872042	1.01424	1.54694	0	0
0.1	-3.12801	1.24026	1.60244	0.7066	1.73735	1.009	0.652946	-0.0026706	-0.113716	0.571531	-0.147279	0	0	0.514081	0.0200929	-0.039813	0.481773	-0.189512	0	0	-0.286344	0.0381897	0.107304	-0.230035	-0.485188	0.0943686	1.31932	1.14472	0	0	0.136462	-0.510976	0.670117	1.10036	1.55068	0	0
0.11	-3.11781	1.24233	1.58569	0.706268	1.73537	1.00847	0.651397	0.00530655	-0.106119	0.576127	-0.145239	0	0	0.502717	0.016705	-0.0462569	0.470688	-0.185145	0	0	-0.289663	0.0404963	0.101251	-0.222396	-0.488151	0.106621	1.31972	1.14655	0	0	0.112439	-0.513122	0.64074	1.11262	1.56003	0	0
0.12	-3.1064	1.24577	1.56817	0.706011	1.73331	1.00803	0.648838	0.0127248	-0.101401	0.582361	-0.141256	0	0	0.4886	0.013432	-0.0514184	0.456134	-0.18196	0	0	-0.298917	0.0429719	0.0815236	-0.201662	-0.493441	0.133904	1.31928	1.1489	0	0	0.0686818	-0.518153	0.58387	1.1387	1.5708	0	0
0.13	-3.09439	1.24882	1.54977	0.705757	1.73142	1.00749	0.646764	0.0204023	-0.0965259	0.588363	-0.139041	0	0	0.47509	0.010033	-0.0539014	0.440251	-0.179832	0	0	-0.30181	0.0454781	0.0783356	-0.196801	-0.494895	0.141846	1.31951	1.14975	0	0	0.0499761	-0.519417	0.563858	1.14817	1.5708	0	0
0.14	-3.08133	1.24564	1.52972	0.705632	1.72941	1.00651	0.650364	0.0294989	-0.0882864	0.592016	-0.136693	0	0	0.468384	0.00548043	-0.0538903	0.423799	-0.176379	0	0	-0.334526	0.0484223	-0.0322789	-0.0802986	-0.513872	0.28771	1.30915	1.12968	0	0	-0.139949	-0.497547	0.290696	1.25043	1.5708	0	0
0.15	-3.07062	1.24366	1.51168	0.70531	1.72773	1.00555	0.652958	0.0383541	-0.0790487	0.595446	-0.135495	0	0	0.463732	0.000215338	-0.0508847	0.416015	-0.168192	0	0	-0.333921	0.0508007	-0.0429055	-0.066771	-0.51477	0.306686	1.30744	1.11401	0	0	-0.17314	-0.47913	0.238413	1.25929	1.5708	0	0
0.16	-3.06384	1.24079	1.4994	0.705171	1.72623	1.00471	0.656711	0.044157	-0.0745364	0.598776	-0.135261	0	0	0.46375	-0.00362511	-0.0435204	0.416979	-0.159965	0	0	-0.328482	0.0528333	-0.0441382	-0.0656909	-0.514054	0.309947	1.30713	1.09628	0	0	-0.189076	-0.458428	0.20361	1.25527	1.5708	0	0
0.17	-3.06818	1.24773	1.49798	0.704714	1.72509	1.005	0.65055	0.0463808	-0.0678147	0.602334	-0.134478	0	0	0.454232	-0.0045902	-0.0430288	0.415956	-0.163187	0	0	-0.333832	0.0471149	-0.042175	-0.0651845	-0.511051	0.309617	1.30462	1.116	0	0	-0.187442	-0.476003	0.227305	1.26045	1.5708	0	0
0.18	-3.07846	1.2536	1.5041	0.704387	1.72414	1.00565	0.64513	0.0457917	-0.0621687	0.604776	-0.133587	0	0	0.446011	-0.00271596	-0.0424267	0.413542	-0.164732	0	0	-0.338537	0.0405391	-0.0413511	-0.0660559	-0.505902	0.305237	1.30211	1.13008	0	0	-0.186165	-0.484113	0.238272	1.26149	1.5708	0	0
0.19	-3.0902	1.26195	1.51368	0.704242	1.72302	1.00677	0.635493	0.0427542	-0.0620079	0.605098	-0.128226	0	0	0.4337	0.000406102	-0.0448883	0.407417	-0.169806	0	0	-0.353055	0.0342869	-0.0593947	-0.0522637	-0.496149	0.312012	1.29724	1.17643	0	0	-0.210051	-0.481287	0.206577	1.2761	1.5708	0	0
0.2	-3.09899	1.26573	1.52237	0.704324	1.72184	1.00746	0.629788	0.039857	-0.0634566	0.604336	-0.126425	0	0	0.426774	0.00356997	-0.044625	0.40448	-0.171485	0	0	-0.35795	0.0303921	-0.0680586	-0.0477384	-0.49089	0.313983	1.29348	1.18258	0	0	-0.219941	-0.478026	0.19235	1.27925	1.5708	0	0
0.21	-3.10599	1.26994	1.53097	0.704682	1.72057	1.00822	0.622723	0.0361855	-0.0677139	0.602474	-0.12458	0	0	0.419063	0.00703774	-0.0431068	0.401089	-0.173322	0	0	-0.36288	0.0280019	-0.0761555	-0.0449582	-0.486439	0.314239	1.29017	1.1887	0	0	-0.227564	-0.474131	0.180056	1.28118	1.5708	0	0
0.22	-3.11078	1.2725	1.53731	0.705106	1.71923	1.00884	0.61722	0.0326133	-0.0744058	0.60051	-0.123569	0	0	0.413481	0.0092789	-0.042728	0.398383	-0.174708	0	0	-0.365022	0.0267169	-0.0815459	-0.0444848	-0.482952	0.313099	1.28706	1.19326	0	0	-0.232336	-0.470348	0.171998	1.28078	1.5708	0	0
0.23	-3.11186	1.27399	1.5395	0.705589	1.71778	1.00931	0.612085	0.0309108	-0.0790156	0.597115	-0.122688	0	0	0.40875	0.0102131	-0.0412183	0.394828	-0.175914	0	0	-0.365486	0.0269717	-0.085672	-0.0449228	-0.479674	0.311138	1.28413	1.19811	0	0	-0.236605	-0.465865	0.164871	1.2792	1.5708	0	0
